# xmcd
#
# Track frame offsets:
#	150
#	12922
#	27132
#	39190
#	48235
#	61922
#	74027
#	92912
#	102380
#	115115
#	125490
#	138172
#	152595
#	169440
#	181340
#	191785
#
# Disc length: 2698
#
# Revision: 2
# Processed by: cddbd v1.5.2PL0 Copyright (c) Steve Scherf et al.
# Submitted via: kJams Pro (development) 1.0patch46.57
#
DISCID=d90a8810
DTITLE=Various Artist - MH 1036
DYEAR=1980
DGENRE=Country
TTITLE0=Bobby Bare - 500 Miles
TTITLE1=David Houston - Almost Persuaded
TTITLE2=Eddy Arnold - The Cattle Call
TTITLE3=Roger Miller - Dang Me
TTITLE4=Glen Campbell - Galveston
TTITLE5=Ray Price - Crazy Arms
TTITLE6=The Weavers - Goodnight Irene
TTITLE7=Lefty Frizzell - If You've Got The Money I've Got The Time
TTITLE8=Freddy Fender - Wasted Days and Wasted Nights
TTITLE9=Hank Snow - I've Been Everywhere
TTITLE10=Merle Haggard - Okie From Muskogee
TTITLE11=Jim Stafford - Spiders and Snakes
TTITLE12=Kenny Rogers - Lucille
TTITLE13=Buck Owens - Together Again
TTITLE14=Webb Pierce - In The Jailhouse Now
TTITLE15=Son Of The Pioneers - Tumbling Tumbleweeds
EXTD=
EXTT0=
EXTT1=
EXTT2=
EXTT3=
EXTT4=
EXTT5=
EXTT6=
EXTT7=
EXTT8=
EXTT9=
EXTT10=
EXTT11=
EXTT12=
EXTT13=
EXTT14=
EXTT15=
PLAYORDER=
